<mxfile host="app.diagrams.net" modified="2023-09-14T23:53:24.791Z" agent="Mozilla/5.0 (Windows NT 10.0; Win64; x64) AppleWebKit/537.36 (KHTML, like Gecko) Chrome/116.0.0.0 Safari/537.36" etag="y8LAdKJG6jsE_rTAkHnr" version="21.7.2" type="github">
  <diagram name="Page-1" id="rmAvq_KC5fuuWYtw4nEc">
    <mxGraphModel dx="1728" dy="932" grid="1" gridSize="10" guides="1" tooltips="1" connect="1" arrows="1" fold="1" page="1" pageScale="1" pageWidth="827" pageHeight="1169" math="0" shadow="0">
      <root>
        <mxCell id="0" />
        <mxCell id="1" parent="0" />
        <mxCell id="3zzxDCBubo-BL3DU7wrb-1" value="a,b" style="rounded=1;whiteSpace=wrap;html=1;" parent="1" vertex="1">
          <mxGeometry x="120" y="300" width="120" height="40" as="geometry" />
        </mxCell>
        <mxCell id="3zzxDCBubo-BL3DU7wrb-2" value="c,d" style="rounded=1;whiteSpace=wrap;html=1;" parent="1" vertex="1">
          <mxGeometry x="120" y="360" width="120" height="40" as="geometry" />
        </mxCell>
        <mxCell id="3zzxDCBubo-BL3DU7wrb-3" value="a" style="rounded=1;whiteSpace=wrap;html=1;" parent="1" vertex="1">
          <mxGeometry x="370" y="280" width="120" height="30" as="geometry" />
        </mxCell>
        <mxCell id="3zzxDCBubo-BL3DU7wrb-4" value="b" style="rounded=1;whiteSpace=wrap;html=1;" parent="1" vertex="1">
          <mxGeometry x="370" y="320" width="120" height="30" as="geometry" />
        </mxCell>
        <mxCell id="3zzxDCBubo-BL3DU7wrb-5" value="d" style="rounded=1;whiteSpace=wrap;html=1;" parent="1" vertex="1">
          <mxGeometry x="370" y="360" width="120" height="30" as="geometry" />
        </mxCell>
        <mxCell id="3zzxDCBubo-BL3DU7wrb-6" value="d" style="rounded=1;whiteSpace=wrap;html=1;" parent="1" vertex="1">
          <mxGeometry x="370" y="400" width="120" height="30" as="geometry" />
        </mxCell>
        <mxCell id="3zzxDCBubo-BL3DU7wrb-7" value="" style="shape=flexArrow;endArrow=classic;html=1;rounded=0;width=11;endSize=9.67;" parent="1" edge="1">
          <mxGeometry width="50" height="50" relative="1" as="geometry">
            <mxPoint x="270" y="349.92" as="sourcePoint" />
            <mxPoint x="340" y="349.92" as="targetPoint" />
          </mxGeometry>
        </mxCell>
        <mxCell id="3zzxDCBubo-BL3DU7wrb-11" value="扩容" style="edgeLabel;html=1;align=center;verticalAlign=middle;resizable=0;points=[];labelBackgroundColor=none;" parent="3zzxDCBubo-BL3DU7wrb-7" vertex="1" connectable="0">
          <mxGeometry x="-0.1524" y="3" relative="1" as="geometry">
            <mxPoint x="18" y="3" as="offset" />
          </mxGeometry>
        </mxCell>
        <mxCell id="3zzxDCBubo-BL3DU7wrb-8" value="" style="shape=flexArrow;endArrow=classic;html=1;rounded=0;width=11;endSize=9.67;" parent="1" edge="1">
          <mxGeometry width="50" height="50" relative="1" as="geometry">
            <mxPoint x="520" y="350" as="sourcePoint" />
            <mxPoint x="590" y="350" as="targetPoint" />
          </mxGeometry>
        </mxCell>
        <mxCell id="3zzxDCBubo-BL3DU7wrb-10" value="缩容" style="edgeLabel;html=1;align=center;verticalAlign=middle;resizable=0;points=[];labelBackgroundColor=none;" parent="3zzxDCBubo-BL3DU7wrb-8" vertex="1" connectable="0">
          <mxGeometry x="-0.019" y="-2" relative="1" as="geometry">
            <mxPoint x="14" y="-2" as="offset" />
          </mxGeometry>
        </mxCell>
        <mxCell id="3zzxDCBubo-BL3DU7wrb-9" value="a,b,c,d" style="rounded=1;whiteSpace=wrap;html=1;" parent="1" vertex="1">
          <mxGeometry x="600" y="335" width="120" height="30" as="geometry" />
        </mxCell>
        <mxCell id="Jn1p4OGmi9iCBwoWFr1L-1" value="" style="shape=flexArrow;endArrow=classic;html=1;rounded=0;width=11;endSize=9.67;" edge="1" parent="1">
          <mxGeometry width="50" height="50" relative="1" as="geometry">
            <mxPoint x="270" y="549.8" as="sourcePoint" />
            <mxPoint x="340" y="549.8" as="targetPoint" />
          </mxGeometry>
        </mxCell>
        <mxCell id="Jn1p4OGmi9iCBwoWFr1L-2" value="扩容" style="edgeLabel;html=1;align=center;verticalAlign=middle;resizable=0;points=[];labelBackgroundColor=none;" vertex="1" connectable="0" parent="Jn1p4OGmi9iCBwoWFr1L-1">
          <mxGeometry x="-0.1524" y="3" relative="1" as="geometry">
            <mxPoint x="18" y="3" as="offset" />
          </mxGeometry>
        </mxCell>
        <mxCell id="Jn1p4OGmi9iCBwoWFr1L-3" value="a,b" style="rounded=1;whiteSpace=wrap;html=1;" vertex="1" parent="1">
          <mxGeometry x="120" y="530" width="120" height="40" as="geometry" />
        </mxCell>
        <mxCell id="Jn1p4OGmi9iCBwoWFr1L-7" value="a" style="rounded=1;whiteSpace=wrap;html=1;" vertex="1" parent="1">
          <mxGeometry x="370" y="500" width="120" height="30" as="geometry" />
        </mxCell>
        <mxCell id="Jn1p4OGmi9iCBwoWFr1L-8" value="b" style="rounded=1;whiteSpace=wrap;html=1;" vertex="1" parent="1">
          <mxGeometry x="370" y="540" width="120" height="30" as="geometry" />
        </mxCell>
        <mxCell id="Jn1p4OGmi9iCBwoWFr1L-9" value="" style="rounded=1;whiteSpace=wrap;html=1;" vertex="1" parent="1">
          <mxGeometry x="370" y="580" width="120" height="30" as="geometry" />
        </mxCell>
      </root>
    </mxGraphModel>
  </diagram>
</mxfile>
